<?xml version="1.0" encoding="UTF-8"?>
<svg width="136px" height="155px" viewBox="0 0 136 155" version="1.1" xmlns="http://www.w3.org/2000/svg" xmlns:xlink="http://www.w3.org/1999/xlink">
    <!-- Generator: Sketch 48.2 (47327) - http://www.bohemiancoding.com/sketch -->
    <title>arcadis</title>
    <desc>Created with Sketch.</desc>
    <defs></defs>
    <g id="Page-1" stroke="none" stroke-width="1" fill="none" fill-rule="evenodd">
        <g id="arcadis" transform="translate(-17.000000, -8.000000)">
            <rect id="Rectangle" x="0" y="0" width="182" height="172"></rect>
            <path d="M74.205,131.561 C78.797,131.561 81.858,134.317 81.858,134.317 L80.021,137.378 C80.021,137.378 77.878,135.235 74.205,135.235 C70.838,135.235 66.858,137.684 66.858,147.479 C66.858,153.909 68.389,158.805 74.817,158.805 C76.042,158.805 78.184,158.194 79.409,157.887 L78.797,161.867 C78.797,161.867 76.348,162.478 73.287,162.478 C69.919,162.478 62.266,161.253 62.266,147.478 C62.266,132.172 71.756,131.561 74.205,131.561 Z M126.246,132.172 L132.674,132.172 L132.674,162.174 L127.776,162.174 L127.776,136.459 C127.775,134.316 127.471,132.785 126.246,132.172 Z M144.613,131.561 C147.674,131.561 151.654,133.092 151.654,133.092 L150.429,136.764 C148.591,135.846 147.062,135.235 145.531,135.235 C143.388,135.235 141.246,136.153 141.246,138.909 C140.939,141.052 142.471,141.663 144.613,143.501 L148.592,146.562 C148.592,146.562 152.879,149.929 152.879,154.214 C152.572,158.499 149.512,162.48 143.082,162.48 C138.797,162.48 135.734,160.949 135.734,160.949 L136.652,157.277 C136.652,157.277 140.021,159.113 142.777,159.113 C145.838,159.113 147.673,157.277 147.673,154.828 C147.673,152.379 145.226,150.236 144.306,149.318 C144.306,149.318 142.163,148.091 140.326,146.562 C138.49,145.031 136.652,142.888 136.652,139.521 C136.652,135.846 139.104,131.561 144.613,131.561 Z M25.226,132.172 L32.879,132.172 L41.144,162.174 L36.247,162.174 L33.798,153.602 L25.227,153.602 L22.777,162.174 L17.88,162.174 L26.45,135.235 C26.45,135.235 26.757,134.01 26.45,133.397 C26.144,132.785 25.226,132.172 25.226,132.172 Z M29.817,138.295 L26.449,150.234 L33.185,150.234 L30.123,138.295 L29.817,137.684 L29.817,138.295 Z M41.756,132.172 L50.633,132.172 C59.51,131.867 59.204,138.908 59.204,139.826 C59.204,139.826 59.51,146.865 53.388,147.785 C55.225,148.09 57.062,148.09 57.98,152.377 L60.429,162.174 L55.837,162.174 L53.388,152.684 C52.776,149.928 52.163,149.928 50.02,149.622 L48.184,149.622 L48.184,162.175 L43.287,162.175 L43.287,135.542 C43.287,132.785 41.756,132.172 41.756,132.172 Z M48.184,146.254 L50.02,146.254 C53.082,145.947 54.306,143.193 54.306,141.969 L54.306,139.213 C54.306,137.07 53.082,135.234 50.02,135.234 L48.184,135.234 L48.184,146.254 Z M87.98,132.172 L95.328,132.172 L103.898,162.174 L98.388,162.174 L96.55,153.602 L87.98,153.602 L85.531,162.174 L80.634,162.174 L88.899,135.235 C88.899,135.235 89.206,134.01 88.899,133.397 C88.592,132.785 87.98,132.172 87.98,132.172 Z M92.266,138.295 L88.899,150.234 L95.633,150.234 L92.572,138.295 L92.572,137.684 L92.266,138.295 Z M104.512,132.172 L114,132.172 C119.51,132.172 124.104,135.846 124.104,146.254 C124.104,157.887 118.899,162.174 113.389,162.174 L106.041,162.174 L106.041,135.541 C105.736,134.01 105.736,132.785 104.512,132.172 Z M110.939,158.498 L112.468,158.498 C114.919,158.498 119.204,156.969 119.204,146.56 C119.204,137.988 117.061,135.54 112.163,135.54 L110.938,135.54 L110.938,158.498 L110.939,158.498 Z M97.537,119.379 C97.576,119.676 97.666,119.955 97.748,120.162 C97.834,120.385 97.912,120.523 97.912,120.523 L110.498,120.523 C110.498,120.523 111.324,120.634 111.684,119.199 C111.707,119.107 111.727,119.01 111.746,118.906 C111.795267,118.242594 111.868314,117.581169 111.965,116.923 C112.083653,116.098617 112.236787,115.279565 112.424,114.468 C112.526579,114.019687 112.638604,113.573588 112.76,113.13 C113.038372,112.124501 113.365085,111.133016 113.739,110.159 C114.229882,108.874557 114.810999,107.626443 115.478,106.424 C116.022307,105.442134 116.633063,104.498603 117.306,103.6 C117.624,103.18 117.951,102.776 118.288,102.391 C118.595,102.037 119.249,101.498 119.942,100.963 C121.087,100.082 122.337,99.213 122.337,99.213 C122.337,99.213 122.741,98.541 123.212,97.695 C123.579,97.033 123.987,96.267 124.276,95.629 C124.374,95.416 124.456,95.215 124.52,95.039 C124.16582,95.1474467 123.818804,95.2780372 123.481,95.43 C122.86,95.701 122.141,96.076 121.366,96.545 C120.011318,97.3693224 118.733506,98.3137923 117.548,99.367 C116.804943,100.026727 116.102021,100.730317 115.443,101.474 C114.385945,102.66035 113.478803,103.972196 112.742,105.38 C112.486157,105.880563 112.242749,106.387385 112.012,106.9 C111.752559,107.470226 111.507152,108.046733 111.276,108.629 C111.070358,109.15356 110.875649,109.682341 110.692,110.215 C110.372813,111.145887 110.093888,112.090096 109.856,113.045 C109.735,113.539 109.641,113.971 109.571,114.328 C109.426,115.06 109.378,115.474 109.378,115.474 L109.368,115.527 L109.126,116.767 L108.94,117.714 C108.94,117.714 108.653,117.718 108.17,117.722 C107.893,117.724 107.553,117.728 107.166,117.73 C106.857,117.73 106.521,117.732 106.162,117.734 L105.162,117.74 L104.162,117.742 L103.162,117.744 C102.824,117.746 102.486,117.746 102.16,117.746 C101.816,117.746 101.484,117.744 101.168,117.742 C100.811,117.742 100.477,117.742 100.172,117.738 C99.8452984,117.736229 99.5186189,117.731563 99.192,117.724 L98.909,117.714 C97.641,117.887 97.445,118.678 97.537,119.379 Z M70.254,118.727 C70.267,118.995 70.349,119.274 70.453,119.528 C70.5803029,119.83421 70.7395152,120.126155 70.928,120.399 C71.4692116,120.413796 72.0105876,120.421797 72.552,120.423 L73.545,120.429 L74.534,120.429 C74.859,120.431 75.193,120.429 75.537,120.429 L77.532,120.429 C77.868,120.427 78.2,120.423 78.532,120.423 L79.532,120.423 C79.873,120.423 80.207,120.423 80.532,120.419 C80.879,120.419 81.215,120.417 81.535,120.415 L82.536,120.413 C82.909,120.409 83.248,120.409 83.54,120.407 C84.005,120.407 84.352,120.403 84.54,120.403 L84.701,120.399 C84.701,120.399 85.013,120.624 85.295,119.649 C85.346,119.467 85.396,119.243 85.443,118.967 C85.458,118.799 85.471,118.631 85.485,118.461 C85.515,118.098 85.548,117.732 85.581,117.365 C85.618,116.996 85.654,116.625 85.697,116.252 C85.74,115.873 85.786,115.492 85.839,115.111 C85.9436158,114.315241 86.0706664,113.522592 86.22,112.734 C86.3849722,111.865899 86.5810989,111.004009 86.808,110.15 C86.939,109.671 87.081,109.197 87.234,108.73 C87.412,108.189 87.609,107.658 87.824,107.14 C88.094,106.484 88.392,105.851 88.724,105.244 C89.341,104.123 90.068,103.096 90.933,102.203 L92.675,100.646 C92.675,100.646 93.607,99.63 94.452,98.519 C95.011,97.787 95.532,97.015 95.727,96.472 C95.0813892,96.6584002 94.4475775,96.8834735 93.829,97.146 C93.208,97.408 92.518,97.746 91.798,98.183 C90.017,99.257 88.048,100.927 86.439,103.542 C86.0218804,104.221041 85.64878,104.926157 85.322,105.653 C85.085,106.178 84.862,106.733 84.657,107.317 C84.3519649,108.194696 84.0962326,109.088757 83.891,109.995 C83.883,110.03 83.874,110.065 83.867,110.102 C83.6715178,110.942153 83.4921515,111.785975 83.329,112.633 C83.244,113.074 83.17,113.479 83.108,113.85 C83.034,114.288 82.975,114.678 82.928,115.028 C82.868,115.469 82.827,115.842 82.801,116.153 C82.757,116.643 82.749,116.983 82.75,117.202 C82.751,117.436 82.765,117.532 82.765,117.532 L71.921,117.532 C71.733,117.532 71.566,117.542 71.414,117.563 C70.481,117.691 70.229,118.186 70.254,118.727 Z M134.213,33.817 C134.285,33.947 134.449,34.133 134.676,34.352 C134.826,34.497 135.004,34.657 135.197,34.825 C135.55647,35.1327207 135.921872,35.4334438 136.293,35.727 C136.481,35.876 136.67,36.022 136.854,36.165 C137.049,36.316 137.241,36.462 137.418,36.597 C137.627,36.755 137.82,36.899 137.99,37.025 C138.256,37.223 138.461,37.372 138.564,37.448 L138.642,37.504 C138.642,37.504 138.79,37.666 139.046,37.965 C139.352731,38.3233999 139.652783,38.6874626 139.946,39.057 C140.390538,39.6145871 140.824285,40.1806922 141.247,40.755 C141.529214,41.1385423 141.805249,41.5265923 142.075,41.919 C142.208,42.111 142.345,42.308 142.479,42.511 C142.612,42.707 142.743,42.907 142.875,43.112 C143.006,43.311 143.133,43.515 143.262,43.72 C143.52158,44.1296118 143.772963,44.544361 144.016,44.964 L144.147,45.191 C144.225,45.329 144.299,45.47 144.374,45.608 C144.611842,46.0442947 144.83202,46.4899891 145.034,46.944 C145.351041,47.6449567 145.63142,48.3619247 145.874,49.092 C146.043051,49.5984387 146.197449,50.1096516 146.337,50.625 C146.481165,51.1554267 146.612537,51.6892481 146.731,52.226 C146.910839,53.0651389 147.063253,53.9099216 147.188,54.759 C147.273726,55.3500298 147.346743,55.9428332 147.407,56.537 C147.438,56.841 147.469,57.146 147.495,57.45 C147.547842,58.0744637 147.588184,58.6999222 147.616,59.326 C147.647201,59.9715835 147.666204,60.6176987 147.673,61.264 C147.677,61.594 147.679,61.923 147.679,62.252 C147.677,62.589 147.675,62.927 147.669,63.262 C147.663,63.604 147.653,63.946 147.64,64.285 C147.619167,64.9848732 147.585828,65.6843182 147.54,66.383 C147.519,66.743 147.493,67.1 147.468,67.454 C147.412652,68.1848273 147.347647,68.9148911 147.273,69.644 C147.234,70.02 147.197,70.393 147.154,70.759 C147.109,71.143 147.064,71.525 147.015,71.897 C146.868135,73.069071 146.697098,74.2379865 146.502,75.403 C146.370488,76.2141732 146.226471,77.0232694 146.07,77.83 C145.90911,78.6692447 145.737095,79.5063183 145.554,80.341 C145.429,80.903 145.324,81.344 145.251,81.641 C145.183,81.929 145.14,82.082 145.14,82.082 C144.460942,83.8613439 143.871535,85.6736195 143.374,87.512 C143.133329,88.3909832 142.9136,89.2755667 142.715,90.165 C142.528386,90.9944723 142.360344,91.828014 142.211,92.665 C142.139,93.072 142.07,93.474 142.006,93.87 C141.944,94.266 141.883,94.657 141.828,95.042 C141.775,95.431 141.726,95.812 141.682,96.188 C141.50433,97.6326491 141.384235,99.0837978 141.322,100.538 C141.262291,101.867345 141.262958,103.198716 141.324,104.528 C141.342,104.858 141.361,105.171 141.386,105.46 C141.43385,106.051991 141.512288,106.641112 141.621,107.225 C141.672,107.469 141.723,107.668 141.777,107.817 C141.791,107.883 141.804,107.952 141.82,108.018 C141.875,108.276 141.937,108.549 142.002,108.834 L142.197,109.635 L142.402,110.432 C142.47,110.692 142.541,110.953 142.613,111.219 L142.83,112 C142.902,112.26 142.976,112.52 143.051,112.777 C143.125,113.039 143.197,113.297 143.272,113.55 L143.499,114.321 C143.579,114.587 143.657,114.846 143.729,115.091 C143.809,115.362 143.887,115.616 143.959,115.857 L144.193,116.623 C144.291,116.943 144.373,117.203 144.429,117.383 L144.517,117.664 C144.517,117.664 144.384,117.666 144.144,117.666 L143.144,117.67 L142.142,117.674 C141.831,117.674 141.497,117.674 141.144,117.676 L140.14,117.682 L139.14,117.682 C138.814,117.682 138.48,117.684 138.14,117.686 L137.144,117.686 C136.81,117.688 136.476,117.688 136.144,117.688 C135.808,117.69 135.474,117.69 135.144,117.69 L133.146,117.69 C132.8,117.69 132.466,117.692 132.148,117.69 L131.154,117.69 L130.16,117.684 C129.746,117.682 129.41,117.68 129.172,117.674 C129,117.672 128.877,117.666 128.815,117.664 C127.821,117.787 127.649,118.469 127.725,119.121 C127.76,119.41 127.844,119.693 127.924,119.92 C128.029,120.207 128.133,120.402 128.133,120.402 L146.824,120.402 C147.437,120.402 147.668,119.716 147.746,119.054 C147.795,118.646 147.785,118.249 147.771,118.029 C147.765,117.918 147.759,117.849 147.759,117.849 L147.56,117.245 C147.478,116.995 147.396,116.745 147.316,116.493 C147.234,116.239 147.152,115.987 147.074,115.737 L146.832,114.977 L146.598,114.215 C146.518292,113.961324 146.439624,113.707322 146.362,113.453 C146.282,113.189 146.202,112.935 146.13,112.691 L145.898,111.925 C145.812,111.646 145.738,111.39 145.668,111.155 C145.578,110.854 145.502,110.594 145.439,110.387 C145.332,110.018 145.267,109.805 145.267,109.805 C145.251,109.739 145.238,109.672 145.22,109.608 C145.154931,109.338821 145.09193,109.069146 145.031,108.799 C144.969,108.524 144.91,108.25 144.851,107.979 C144.733922,107.422372 144.627236,106.863608 144.531,106.303 C144.4842,106.01495 144.439199,105.726612 144.396,105.438 C144.353072,105.146872 144.314069,104.855179 144.279,104.563 C144.243144,104.263356 144.210476,103.963339 144.181,103.663 C144.15236,103.354664 144.127691,103.045971 144.107,102.737 C144.087,102.423 144.072,102.106 144.06,101.79 C144.037219,101.128241 144.033885,100.465955 144.05,99.804 C144.071058,99.0966502 144.112074,98.3900356 144.173,97.685 C144.206,97.318 144.245,96.947 144.288,96.572 C144.335,96.193 144.386,95.81 144.442,95.42 C144.563656,94.6120401 144.703023,93.8068464 144.86,93.005 C144.94,92.597 145.026,92.175 145.12,91.751 C145.21,91.329 145.308,90.899 145.411,90.462 C145.513,90.03 145.62,89.591 145.733,89.14 C145.956558,88.2331648 146.194923,87.3300442 146.448,86.431 C146.571,85.98 146.7,85.521 146.833,85.048 L147.237,83.645 C147.37,83.184 147.51,82.714 147.653,82.234 C147.788,81.777 147.926,81.31 148.069,80.836 C148.073,80.826 148.077,80.818 148.077,80.81 C148.182,80.463 148.307,80.007 148.442,79.448 C148.643472,78.6085875 148.822536,77.7639543 148.979,76.915 C149.047,76.532 149.12,76.128 149.186,75.707 C149.248,75.329 149.309,74.939 149.368,74.532 C149.423,74.16 149.473,73.774 149.522,73.378 C149.567,73.012 149.612,72.636 149.655,72.251 C149.692,71.89 149.729,71.52 149.764,71.144 C149.797,70.789 149.826,70.423 149.852,70.055 C149.906906,69.3498437 149.94858,68.6437195 149.977,67.937 C149.991,67.598 150.002,67.254 150.01,66.907 C150.029348,66.234518 150.036682,65.561744 150.032,64.889 C150.029969,64.5609789 150.025969,64.232973 150.02,63.905 C150.007134,63.262934 149.982464,62.6211589 149.946,61.98 C149.929899,61.6668308 149.910898,61.3538174 149.889,61.041 C149.869,60.734 149.842,60.423 149.817,60.113 C149.791166,59.8104047 149.762498,59.5080581 149.731,59.206 C149.702181,58.9049278 149.669511,58.6042365 149.633,58.304 C149.598,58.012 149.559,57.719 149.52,57.424 C149.481,57.132 149.438,56.841 149.395,56.548 C149.35,56.262 149.305,55.975 149.258,55.689 C149.209,55.408 149.158,55.126 149.106,54.842 C149.053,54.565 149.001,54.288 148.944,54.009 C148.887,53.735 148.829,53.459 148.766,53.184 C148.707,52.914 148.645,52.645 148.58,52.375 C148.516,52.109 148.447,51.842 148.379,51.575 C148.312525,51.3129755 148.242184,51.051947 148.168,50.792 C148.096,50.532 148.022,50.273 147.945,50.015 L147.883,49.804 C147.677911,49.1197196 147.445728,48.4438537 147.187,47.778 C147.003594,47.3036967 146.809545,46.8335779 146.605,46.368 C146.503988,46.1390019 146.399308,45.9116393 146.291,45.686 C146.186,45.461 146.074,45.236 145.965,45.015 C145.632335,44.3604829 145.278142,43.7171321 144.903,43.086 C144.776,42.877 144.651,42.67 144.52,42.466 C144.39245,42.2632086 144.262105,42.0621894 144.129,41.863 C143.995174,41.6636425 143.859837,41.4653035 143.723,41.268 C143.451326,40.8779866 143.168544,40.4958301 142.875,40.122 C142.586995,39.747205 142.287519,39.3813651 141.977,39.025 C141.670424,38.6679699 141.353283,38.3201491 141.026,37.982 C140.699308,37.643269 140.362488,37.3144533 140.016,36.996 C139.84,36.836 139.664,36.679 139.489,36.527 C139.309555,36.3733466 139.127869,36.2223304 138.944,36.074 C138.571172,35.7783083 138.187579,35.4964505 137.794,35.229 C137.594649,35.0944158 137.392263,34.9643821 137.187,34.839 C136.974,34.712 136.761,34.589 136.55,34.476 C136.106479,34.2387605 135.647821,34.0309779 135.177,33.854 C135.009982,33.7922323 134.841248,33.7352095 134.671,33.683 C134.586292,33.6572848 134.500143,33.6365823 134.413,33.621 C134.178,33.582 134.129,33.661 134.213,33.817 Z M30.418,118.652 C30.001,119.218 29.867,119.881 29.824,120.248 C29.805,120.422 29.804,120.523 29.804,120.523 L49.871,120.523 C49.871,120.523 50.802,120.084 51.277,118.75 C51.31,118.662 51.338,118.566 51.365,118.469 C51.5004974,117.687752 51.6736997,116.913514 51.884,116.149 C52.1665661,115.118985 52.5115367,114.107116 52.917,113.119 C53.163,112.517 53.433,111.912 53.729,111.308 C54.094,110.566 54.498,109.828 54.939,109.099 C55.7315362,107.792293 56.6348569,106.556082 57.639,105.404 C58.3583999,104.577928 59.1335481,103.802111 59.959,103.082 C60.947837,102.217468 62.0132215,101.44462 63.142,100.773 L63.365,100.673 L65.14,99.898 L66.912,99.125 L68.563,98.402 C68.563,98.402 70.432,96.847 70.927,95.476 C70.7666566,95.5208778 70.6049056,95.5605651 70.442,95.595 C70.107,95.663 69.692,95.738 69.212,95.827 C68.834,95.897 68.414,95.977 67.962,96.079 C67.549,96.167 67.109,96.274 66.646,96.397 C65.6189165,96.6710984 64.6107815,97.01182 63.628,97.417 C62.022726,98.0770615 60.5025125,98.9274813 59.1,99.95 C57.361,101.214 55.614,102.874 53.985,105.067 C53.304428,105.985147 52.6783508,106.942461 52.11,107.934 C51.7161309,108.623155 51.3465701,109.325921 51.002,110.041 C50.722,110.623 50.451,111.229 50.188,111.857 C50.0566071,112.168333 49.929263,112.48136 49.806,112.796 L49.645,113.398 L49.28,114.759 L48.914,116.124 L48.548,117.489 L48.5,117.66 L46.378,117.66 C46.067,117.66 45.731,117.66 45.379,117.662 C45.058,117.662 44.725,117.664 44.379,117.666 C44.054,117.668 43.719,117.668 43.375,117.668 L42.374,117.672 L41.374,117.676 C41.043,117.678 40.709,117.678 40.375,117.678 C40.041,117.678 39.707,117.682 39.374,117.682 C39.038,117.684 38.705,117.684 38.376,117.684 C38.038,117.686 37.704,117.686 37.376,117.686 L34.387,117.686 C34.018,117.684 33.683,117.684 33.39,117.68 C32.973,117.678 32.64,117.674 32.41,117.666 C32.345,117.664 32.287,117.66 32.24,117.66 C31.691,117.715 31.268,117.892 30.94,118.131 C30.7398362,118.276313 30.5636968,118.452115 30.418,118.652 Z M78.706,68.375 C78.893,68.462 79.129,68.558 79.419,68.655 C79.643,68.731 79.898,68.808 80.186,68.886 C80.315,68.922 80.448,68.955 80.59,68.991 C81.0084582,69.0951343 81.434426,69.1663518 81.864,69.204 C82.168,69.234 82.486,69.251 82.809,69.26 C83.136,69.269 83.469,69.267 83.807,69.258 C84.158,69.249 84.51,69.229 84.862,69.203 C85.233,69.174 85.604,69.139 85.967,69.097 C86.364,69.05 86.753,68.994 87.124,68.936 C87.5355396,68.8697035 87.9453372,68.7930123 88.353,68.706 C88.888,68.59 89.351,68.466 89.707,68.347 C89.742,68.336 89.779,68.322 89.812,68.31 C90.9476219,67.861686 92.0703998,67.3814959 93.179,66.87 C93.8295159,66.56849 94.4749396,66.2561129 95.115,65.933 C95.801,65.588 96.515,65.212 97.238,64.808 C98.06,64.349 98.898,63.852 99.722,63.323 C100.68863,62.705181 101.623484,62.0390014 102.523,61.327 C102.927,61.004 103.31,60.686 103.671,60.369 L103.687,60.352 C104.675025,59.4794719 105.607826,58.5463372 106.48,57.558 C109.257,54.429 110.591,51.849 113.476,50.562 C113.939,50.355 114.441,50.182 114.996,50.046 C115.174,50.001 115.355,49.959 115.545,49.924 C115.775,49.877 116.004,49.841 116.225,49.812 C116.898032,49.7178175 117.579985,49.7053939 118.256,49.775 C118.812795,49.833522 119.361442,49.9532451 119.892,50.132 C120.366975,50.2969417 120.824253,50.5089981 121.257,50.765 C121.868938,51.1306776 122.428383,51.5777626 122.92,52.094 C123.082,52.265 123.238,52.44 123.389,52.624 C123.691792,52.9936427 123.967508,53.3846587 124.214,53.794 C124.47015,54.2173028 124.69766,54.6572876 124.895,55.111 C124.999,55.345 125.094,55.58 125.182,55.819 C125.272,56.068 125.356,56.318 125.432,56.569 C125.508,56.832 125.577,57.092 125.639,57.355 C125.662,57.454 125.684,57.551 125.703,57.652 C125.724,57.509 125.744,57.371 125.762,57.234 C125.805,56.853 125.836,56.491 125.856,56.145 C125.874,55.788 125.877,55.45 125.87,55.129 C125.857053,54.5225266 125.794173,53.91815 125.682,53.322 C125.629519,53.0511176 125.564449,52.7828268 125.487,52.518 C125.413713,52.268721 125.327598,52.0233942 125.229,51.783 C125.133193,51.5529711 125.023663,51.3289014 124.901,51.112 C124.784686,50.9022556 124.64731,50.7049038 124.491,50.523 C124.47,50.499 124.454,50.484 124.454,50.484 C124.390878,50.2628549 124.2826,50.0571951 124.136,49.88 C123.989396,49.6956318 123.826032,49.5252374 123.648,49.371 C123.468697,49.216296 123.280366,49.0723761 123.084,48.94 C122.883439,48.8041616 122.676899,48.6773681 122.465,48.56 C122.024348,48.316711 121.56527,48.1084039 121.092,47.937 C120.035134,47.5487603 118.928348,47.3130592 117.805,47.237 C117.478795,47.2157263 117.151844,47.208053 116.825,47.214 C116.475,47.22 116.12,47.245 115.761,47.287 C114.850234,47.3902471 113.95675,47.6114332 113.103,47.945 C112.388,48.225 111.675,48.595 110.982,49.068 C110.11088,49.6646349 109.320939,50.3718837 108.632,51.172 C108.183898,51.6843047 107.745158,52.2047243 107.316,52.733 C105.41,55.059 104.136,56.822 100.086,59.964 C99.559,60.373 98.982,60.803 98.354,61.263 C97.7669327,61.6792179 97.1731888,62.0859375 96.573,62.483 C95.7097191,63.0535903 94.8303626,63.5994783 93.936,64.12 C93.2162498,64.5399074 92.4849674,64.9397284 91.743,65.319 C91.083,65.655 90.448,65.954 89.843,66.222 C89.287698,66.4677273 88.7254672,66.6974883 88.157,66.911 C87.628,67.108 87.122,67.281 86.639,67.429 C86.157,67.578 85.697,67.704 85.26,67.81 C84.4640526,68.0070829 83.6554709,68.1490859 82.84,68.235 C82.4859614,68.2708086 82.1307178,68.2934908 81.775,68.303 C81.412,68.312 81.084,68.304 80.79,68.287 C80.4885818,68.2695547 80.1882133,68.2371816 79.89,68.19 C79.6015698,68.1447715 79.3168166,68.0785965 79.038,67.992 C78.052,67.743 77.859,67.981 78.706,68.375 Z M94.896,51.183 C95.052,50.955 95.226,50.741 95.419,50.547 C95.767,50.198 96.12,49.872 96.472,49.608 C97.005,49.207 97.542,48.95 98.091,48.989 C98.339,49.009 98.587,49.084 98.839,49.236 C98.903,49.275 98.968,49.317 99.032,49.366 C99.167,49.463 99.276,49.581 99.358,49.716 C99.495,49.94 99.561,50.21 99.569,50.504 C99.577,50.889 99.487,51.314 99.325,51.743 C99.0616711,52.4316165 98.6662547,53.0621086 98.161,53.599 C97.528,54.233 96.806,54.726 96.138,54.932 C95.761,55.047 95.404,55.074 95.087,54.983 C94.9094432,54.9331178 94.7453897,54.8439137 94.607,54.722 C94.3941413,54.4863284 94.2490135,54.197455 94.187,53.886 C94.1245361,53.5587427 94.1231799,53.2227509 94.183,52.895 C94.2957442,52.2799829 94.5388597,51.696233 94.896,51.183 Z M93.045,51.043 C92.83,51.529 92.672,52.023 92.574,52.508 C92.498,52.888 92.459,53.264 92.457,53.622 C92.455,53.945 92.482,54.255 92.537,54.543 C92.59,54.814 92.672,55.068 92.777,55.297 C92.882,55.525 93.013,55.728 93.172,55.901 L93.236,55.971 C93.5625743,56.2957779 93.9661405,56.5324816 94.409,56.659 C94.688,56.739 94.985,56.776 95.298,56.769 C95.694,56.76 96.112,56.679 96.54,56.525 C97.347,56.234 98.198,55.681 99.032,54.848 C99.823,54.037 100.43,53.134 100.821,52.242 C101.038,51.75 101.188,51.263 101.272,50.798 C101.334,50.428 101.358,50.071 101.331,49.737 C101.313852,49.4555939 101.255219,49.1782658 101.157,48.914 C101.071297,48.6838251 100.949433,48.4687913 100.796,48.277 C100.749778,48.2217903 100.701408,48.1684159 100.651,48.117 C100.358708,47.8280951 100.01202,47.6000288 99.631,47.446 C99.3799405,47.3432503 99.1178796,47.2697658 98.85,47.227 C98.5322247,47.1767997 98.2095284,47.1653828 97.889,47.193 C97.4376824,47.2340554 96.9949041,47.3415487 96.575,47.512 C95.876,47.79 95.163,48.251 94.483,48.929 C93.8785147,49.5398753 93.3911271,50.2563825 93.045,51.043 Z M58.465,36.736 C57.8167014,37.6416852 57.2129835,38.5784659 56.656,39.543 C56.2554844,40.2342854 55.882525,40.9411735 55.538,41.662 C55.013634,42.7530218 54.5574253,43.875509 54.172,45.023 C53.8671252,45.9274266 53.6117468,46.8477903 53.407,47.78 C53.2321814,48.5763364 53.0933736,49.3801534 52.991,50.189 C52.8551874,51.2481877 52.7890452,52.3151479 52.793,53.383 C52.7941782,54.0227098 52.8191956,54.6621535 52.868,55.3 C52.9153801,55.8981076 52.9854304,56.4942028 53.078,57.087 C53.1661865,57.6470942 53.2762708,58.2035204 53.408,58.755 C53.48,59.056 53.552,59.319 53.616,59.544 C53.7040715,59.8518149 53.8051624,60.1557549 53.919,60.455 C53.919,60.455 53.906,60.394 53.885,60.274 C53.83501,59.9826633 53.7939907,59.6898583 53.762,59.396 C53.7288993,59.0906201 53.7025595,58.7845452 53.683,58.478 C53.6405115,57.8285907 53.6251648,57.1776901 53.637,56.527 C53.6536153,55.4473269 53.7327478,54.3695223 53.874,53.299 C54.035278,52.0469545 54.2760983,50.8064459 54.595,49.585 C54.713,49.129 54.846,48.663 54.991,48.189 C55.321518,47.1239973 55.7046554,46.0760432 56.139,45.049 C56.7275273,43.6678083 57.4039117,42.325728 58.164,41.031 C58.7454031,40.0447085 59.3713838,39.0853831 60.04,38.156 C61.4364115,36.2197801 62.994673,34.4055997 64.698,32.733 C64.698,32.733 66.403,31.064 69.401,28.795 C72.1105468,26.7445992 74.9638905,24.8914965 77.939,23.25 C79.2569265,22.527255 80.5993914,21.8501857 81.964,21.22 C83.610926,20.4586101 85.2927882,19.7751867 87.004,19.172 C87.496,19 87.998,18.835 88.504,18.673 C88.973,18.524 89.447,18.381 89.926,18.245 C90.379,18.115 90.838,17.988 91.301,17.87 C91.733,17.761 92.17,17.657 92.61,17.558 C94.1980431,17.1925613 95.8056605,16.9181145 97.425,16.736 C98.5014415,16.6126347 99.5822476,16.5309071 100.665,16.491 C100.909,16.483 101.153,16.473 101.399,16.468 L101.682,16.467 L102.686,16.464 L103.676,16.468 C104.329072,16.4761461 104.982086,16.4884797 105.635,16.505 C105.959,16.515 106.28,16.526 106.6,16.538 C107.234385,16.5614319 107.868438,16.5931012 108.502,16.633 C108.816,16.653 109.129,16.672 109.436,16.695 C109.748,16.718 110.057,16.742 110.364,16.767 C110.969152,16.821644 111.573839,16.8813127 112.178,16.946 C112.481,16.98 112.778,17.014 113.073,17.052 C113.658521,17.1220143 114.24263,17.2033629 114.825,17.296 C115.394455,17.3842786 115.962522,17.48129 116.529,17.587 C117.082329,17.6903987 117.633752,17.8037504 118.183,17.927 C118.456,17.987 118.726,18.051 118.992,18.115 C120.042332,18.3656904 121.08275,18.6562336 122.111,18.986 C122.363,19.067 122.617,19.15 122.865,19.234 C123.355279,19.4040639 123.843,19.5814169 124.328,19.766 C124.804367,19.9467308 125.276493,20.1384487 125.744,20.341 C126.205926,20.5404179 126.664973,20.746439 127.121,20.959 C127.348,21.065 127.572,21.174 127.795,21.285 L128.137,21.452 C128.244,21.507 128.354,21.561 128.461,21.615 C128.684,21.727 128.904,21.839 129.125,21.953 C129.346,22.066 129.564,22.181 129.781,22.293 C130.004,22.407 130.224,22.521 130.441,22.629 C130.67,22.743 130.894,22.852 131.111,22.955 C131.349,23.066 131.58,23.17 131.804,23.263 C132.056,23.367 132.3,23.456 132.534,23.528 C132.823,23.618 133.098,23.679 133.356,23.707 C133.862,23.76 134.297,23.678 134.649,23.405 C134.715012,23.3506264 134.775626,23.2900124 134.83,23.224 C135.109,22.87 135.07,22.478 134.928,22.135 C134.828909,21.9121854 134.697864,21.7050068 134.539,21.52 C134.408,21.361 134.301,21.264 134.301,21.264 L133.99,21.517 C133.595,22.032 133.203,22.165 132.902,22.165 C132.582,22.165 132.367,22.016 132.367,22.016 L132.17,21.896 C131.747075,21.6505431 131.319324,21.4134965 130.887,21.185 C130.688,21.08 130.467,20.968 130.229,20.847 C130.02,20.742 129.797,20.632 129.561,20.515 C129.346,20.411 129.122,20.305 128.883,20.195 C128.656196,20.0870979 128.428181,19.9817579 128.199,19.879 C127.504629,19.567495 126.804159,19.26977 126.098,18.986 L125.387,18.704 C125.145092,18.6108835 124.902756,18.5188825 124.66,18.428 C124.418094,18.3384996 124.175758,18.2501653 123.933,18.163 L123.191,17.904 C122.949,17.82 122.699,17.737 122.447,17.653 C121.94299,17.4856538 121.436255,17.3266322 120.927,17.176 C120.669882,17.0988036 120.412208,17.0234683 120.154,16.95 C119.895787,16.8742353 119.636772,16.8012312 119.377,16.731 C119.115,16.66 118.854,16.589 118.586,16.521 C118.052918,16.3815858 117.517508,16.2512336 116.98,16.13 C116.71,16.068 116.441,16.007 116.168,15.95 C115.615242,15.8325721 115.061209,15.721232 114.506,15.616 C114.225,15.565 113.944,15.513 113.656,15.464 C113.083303,15.3641495 112.508879,15.2744687 111.933,15.195 C111.342889,15.1118368 110.751479,15.0381607 110.159,14.974 C109.551881,14.9068214 108.943817,14.8484819 108.335,14.799 C107.390519,14.7231165 106.444183,14.6724318 105.497,14.647 C104.504234,14.6193364 103.510944,14.6156687 102.518,14.636 C102.176,14.644 101.832,14.652 101.485,14.666 C100.776663,14.6980157 100.0689,14.7416883 99.362,14.797 C98.237895,14.8867861 97.1167271,15.0101746 96,15.167 C95.202549,15.2811642 94.4073981,15.4108554 93.615,15.556 C92.7702967,15.7138148 91.9291005,15.8898559 91.092,16.084 C90.1870567,16.2952778 89.2877535,16.5300236 88.395,16.788 C86.3048273,17.3883037 84.2510736,18.108837 82.244,18.946 C81.005889,19.456912 79.7864432,20.0119333 78.588,20.61 C77.235891,21.2831157 75.9068062,22.0015219 74.603,22.764 C74.458,22.848 74.322,22.934 74.18,23.018 C73.2749593,23.5589111 72.3817495,24.1193761 71.501,24.699 C70.3489925,25.4567675 69.2217392,26.2515145 68.121,27.082 C63.864,30.299 60.735,33.568 58.465,36.736 Z M126.803,122.293 L148.742,122.293 C148.742,122.293 150.471,121.947 150.297,118.318 C150.125,116.246 146.324,108.99 146.324,101.736 C146.152,92.925 147.707,89.297 149.433,82.559 C157.035,55.266 146.669,42.136 144.941,39.892 C135.095,25.207 113.328,26.244 113.328,26.244 C113.328,26.244 98.99,26.071 87.933,32.981 C87.933,32.981 80.852,35.745 77.569,45.592 C76.014,50.429 72.386,54.749 72.386,59.757 C72.386,59.757 71.35,71.158 84.997,70.814 C84.997,70.814 95.362,70.122 105.381,61.312 C105.381,61.312 106.762,60.794 110.736,55.093 C119.027,46.457 127.148,56.821 121.793,64.767 C116.264,75.132 106.936,77.377 102.1,79.105 C92.252,81.696 85.169,80.141 85.169,80.141 C85.169,80.141 55.284,81.005 54.766,56.994 C54.766,36.264 80.678,18.298 103.136,17.607 C113.157,17.607 123.349,19.506 130.431,23.826 C135.786,27.107 138.55,23.48 134.406,19.334 C134.406,19.334 122.484,8.277 94.844,8.277 C69.452,8.105 32.31,25.898 29.2,64.939 C29.2,64.939 28.855,71.331 30.755,84.46 C32.655,95.861 33.346,101.388 27.646,115.035 C26.782,117.973 25.919,122.293 29.028,122.293 L51.658,122.293 C52.522,122.293 53.213,119.873 53.213,119.873 C53.213,119.873 55.286,107.781 65.478,102.426 C64.442,112.272 67.551,122.119 69.797,122.293 L86.208,122.293 C86.726,122.119 87.763,119.873 87.935,118.838 C88.281,112.272 89.492,108.645 91.392,104.844 C90.701,113.481 96.402,122.293 97.439,122.293 L112.123,122.293 C113.33,122.293 114.195,118.838 114.195,118.838 C114.195,118.838 114.195,111.754 119.896,103.809 C119.029,109.336 123.867,122.293 126.803,122.293 Z" id="Shape" fill="#FFFFFF" fill-rule="nonzero"></path>
        </g>
    </g>
</svg>