<?xml version="1.0" encoding="UTF-8"?>
<svg width="506px" height="334px" viewBox="0 0 506 334" version="1.1" xmlns="http://www.w3.org/2000/svg" xmlns:xlink="http://www.w3.org/1999/xlink">
    <!-- Generator: Sketch 48.2 (47327) - http://www.bohemiancoding.com/sketch -->
    <title>banco-safra</title>
    <desc>Created with Sketch.</desc>
    <defs></defs>
    <g id="Page-1" stroke="none" stroke-width="1" fill="none" fill-rule="evenodd">
        <g id="banco-safra" fill="#FFFFFF" fill-rule="nonzero">
            <path d="M328.874,120.236 C327.63,131.451 322.403,143.564 314.88,151.814 C310.954,156.126 307.956,160.123 294.106,169.547 C276.103,179.518 260.169,186.163 250.893,193.37 C241.611,186.163 225.683,179.517 207.674,169.547 C193.828,160.123 190.831,156.126 186.898,151.814 C179.382,143.564 174.154,131.452 172.91,120.236 C171.389,105.766 176.925,92.944 186.067,84.08 C188.972,80.755 187.034,79.098 185.653,76.461 C183.172,71.75 182.605,69.68 178.447,61.508 C176.23,57.137 175.102,53.932 175.682,51.116 C177.757,43.632 185.653,40.764 188.426,37.406 C188.914,36.807 189.921,36.465 190.224,35.879 C190.727,34.893 190.359,33.802 190.359,33.802 C190.353,33.778 187.277,27.822 187.593,26.873 C188.231,24.959 198.674,19.254 207.26,15.793 C217.644,12.055 223.291,10.534 232.612,8.174 C244.104,5.267 250.893,0 250.893,0 C250.893,0 257.681,5.267 269.173,8.175 C278.494,10.534 284.133,12.055 294.519,15.794 C303.111,19.255 313.553,24.961 314.191,26.874 C314.507,27.823 311.432,33.778 311.419,33.803 C311.419,33.803 311.053,34.894 311.562,35.88 C311.86,36.466 312.87,36.808 313.362,37.407 C316.133,40.766 324.028,43.634 326.103,51.117 C326.683,53.933 325.557,57.138 323.332,61.509 C319.18,69.681 318.613,71.751 316.132,76.462 C314.746,79.098 312.806,80.756 315.719,84.081 C324.857,92.943 330.396,105.766 328.874,120.236 Z M323.885,117.186 C323.75,105.41 319.736,94.748 311.149,86.298 C306.019,81.586 308.236,80.569 309.898,77.435 C312.393,72.724 311.966,72.749 316.131,63.996 C318.014,60.038 321.391,54.444 320.147,50.698 C318.621,47.379 311.046,42.281 310.587,41.977 C308.06,40.288 306.301,39.07 304.495,37.406 C303.612,35.95 304.638,35.189 304.638,35.189 C304.638,35.189 307.874,29.974 307.404,29.091 C304.91,24.385 281.228,16.624 268.071,13.576 C261.741,12.113 250.893,6.098 250.893,6.098 C250.893,6.098 240.039,12.113 233.721,13.576 C220.558,16.624 196.871,24.385 194.383,29.091 C193.912,29.974 197.149,35.189 197.149,35.189 C197.149,35.189 198.174,35.951 197.291,37.406 C195.491,39.07 193.719,40.287 191.193,41.977 C190.74,42.28 183.161,47.379 181.632,50.698 C180.39,54.444 183.767,60.038 185.655,63.996 C189.82,72.75 189.393,72.724 191.882,77.435 C193.546,80.569 195.762,81.586 190.638,86.298 C182.052,94.749 178.036,105.41 177.902,117.186 C178.727,129.653 182.742,140.042 194.937,153.058 C198.863,157.376 204.354,161.926 218.342,169.405 C231.505,176.193 241.198,180.209 250.752,187.273 C260.312,180.209 270.284,176.193 283.446,169.405 C297.434,161.926 302.925,157.377 306.856,153.058 C319.038,140.042 323.054,129.653 323.885,117.186 Z" id="Shape"></path>
            <path d="M313.638,120.647 C312.393,119.403 308.958,120.391 308.532,121.061 C307.153,116.472 304.406,112.538 301.043,110.018 C301.043,110.018 301.029,109.156 301.448,108.736 C302.234,108.317 304.496,108.599 306.302,107.769 C307.681,107.131 307.957,111.365 311.698,110.811 C314.352,110.418 314.334,107.626 312.805,107.904 C312.335,107.756 311.71,108.897 311.149,109.013 C309.202,109.432 308.932,106.519 308.932,105.275 C308.932,104.721 310.034,101.239 309.202,98.898 C308.165,95.96 304.857,94.342 303.389,93.362 C302.975,93.085 302.243,91.371 303.112,90.726 C305.187,89.205 301.173,87.818 300.482,91.28 C300.102,93.189 300.875,93.697 300.758,94.749 C300.617,95.994 296.854,98.538 299.928,100.847 C301.591,102.091 302.1,100.048 301.314,99.041 C299.793,97.101 306.713,94.193 306.993,101.535 C307.101,104.585 302.074,105.964 300.965,106.383 C292.515,106.383 285.663,98.287 285.663,88.309 C285.663,80.587 289.866,73.928 295.629,71.337 C297.988,68.708 307.682,69.127 307.271,64.97 C306.98,62.134 304.22,60.67 302.694,62.197 C302.004,63.583 304.357,63.726 304.22,65.105 C304.093,66.387 301.79,66.729 300.205,65.659 C299.398,65.118 299.096,64.285 298.955,62.888 C298.401,57.35 309.487,53.335 309.487,53.335 C309.487,53.335 300.34,50.564 300.063,47.933 C299.831,45.724 300.895,45.439 301.868,46.683 C302.442,47.424 304.086,45.85 302.139,44.053 C300.618,43.08 298.393,43.943 297.71,46.27 C297.02,48.624 288.428,38.232 287.318,35.19 C286.783,33.714 287.339,30.44 289.116,31.033 C290.368,31.452 290.092,32.277 289.672,32.831 C289.175,33.503 289.614,34.674 290.509,34.771 C291.406,34.874 292.791,33.876 292.863,32.142 C292.998,28.815 286.631,26.321 284.967,31.452 C284.618,32.514 283.715,31.033 283.027,30.479 C281.493,29.248 271.947,17.877 259.203,17.735 C254.337,17.683 256.567,18.901 254.214,18.709 C252.558,18.566 251.448,16.214 250.752,15.382 C250.341,16.073 248.954,18.567 247.291,18.709 C244.939,18.901 247.175,17.684 242.308,17.735 C229.559,17.878 220.018,29.248 218.484,30.479 C217.788,31.033 216.886,32.514 216.544,31.452 C214.88,26.322 208.513,28.816 208.648,32.142 C208.719,33.876 210.104,34.874 211,34.771 C211.896,34.673 212.334,33.502 211.833,32.831 C211.414,32.277 211.143,31.452 212.387,31.033 C214.172,30.44 214.728,33.714 214.185,35.19 C213.077,38.232 204.491,48.624 203.801,46.27 C203.118,43.943 200.893,43.081 199.366,44.053 C197.426,45.851 199.069,47.425 199.643,46.683 C200.61,45.439 201.673,45.724 201.449,47.933 C201.164,50.564 192.024,53.335 192.024,53.335 C192.024,53.335 196.517,55.062 199.643,57.764 C201.332,59.227 202.743,60.949 202.551,62.889 C202.416,64.286 202.113,65.119 201.306,65.66 C199.714,66.73 197.418,66.388 197.291,65.106 C197.149,63.727 199.501,63.585 198.812,62.198 C197.291,60.671 194.526,62.135 194.242,64.971 C193.83,69.128 203.524,68.709 205.877,71.338 C211.646,73.929 215.848,80.588 215.848,88.31 C215.848,98.289 208.996,106.384 200.546,106.384 C199.437,105.965 194.401,104.586 194.518,101.536 C194.795,94.194 201.718,97.101 200.197,99.042 C199.411,100.049 199.92,102.092 201.583,100.848 C204.657,98.539 200.893,95.994 200.752,94.75 C200.636,93.699 201.409,93.19 201.029,91.281 C200.339,87.82 196.316,89.206 198.393,90.727 C199.268,91.373 198.536,93.086 198.122,93.363 C196.651,94.343 193.34,95.962 192.302,98.899 C191.477,101.24 192.579,104.722 192.579,105.276 C192.579,106.52 192.302,109.433 190.362,109.014 C189.8,108.898 189.175,107.756 188.698,107.905 C187.177,107.628 187.153,110.42 189.808,110.812 C193.546,111.366 194.384,107.074 195.352,107.493 C197.975,108.614 199.269,108.318 200.055,108.737 C200.474,109.156 200.469,110.019 200.469,110.019 C197.097,112.539 194.358,116.473 192.979,121.062 C192.553,120.392 189.118,119.404 187.874,120.648 C186.347,122.035 186.824,123.769 186.901,124.394 C187.038,125.496 189.416,125.773 189.118,123.556 C188.841,121.481 191.612,122.178 192.025,124.252 C192.579,127.437 191.722,128.713 191.883,129.796 C193.275,138.659 199.618,144.195 207.057,144.195 C208.293,144.195 209.467,144.079 210.595,143.815 C211.915,143.504 212.664,145.858 213.774,147.798 C213.774,147.798 209.203,149.596 209.759,153.058 C210.313,156.527 213.497,158.325 215.849,155.275 C216.816,154.033 215.158,153.89 213.36,153.89 C211.994,152.923 212.129,151.254 215.435,150.569 C219.453,149.738 223.048,158.324 224.44,161.926 C225.821,165.524 233.44,175.502 243.83,173.143 C244.52,172.988 250.752,182.425 250.752,182.425 C250.752,182.425 256.992,172.987 257.683,173.143 C268.073,175.502 275.691,165.524 277.073,161.926 C278.457,158.324 282.06,149.738 286.076,150.569 C289.384,151.254 289.518,152.923 288.153,153.89 C286.355,153.89 284.697,154.033 285.664,155.275 C288.011,158.325 291.201,156.527 291.755,153.058 C292.311,149.596 287.739,147.798 287.739,147.798 C288.848,145.858 289.595,143.504 290.918,143.815 C292.047,144.079 293.22,144.195 294.456,144.195 C301.895,144.195 308.935,138.659 309.346,129.377 C309.399,128.288 309.064,126.116 309.489,124.252 C309.901,122.177 312.674,121.481 312.396,123.556 C312.099,125.774 314.471,125.496 314.614,124.394 C314.681,123.769 315.164,122.034 313.638,120.647 Z M249.094,28.956 C250.339,27.15 250.75,24.939 251.027,26.041 C251.504,27.944 253.109,28.814 252.413,29.368 C251.351,30.219 248.63,29.621 249.094,28.956 Z M250.75,177.854 L247.154,172.589 L250.75,167.607 L254.354,172.589 L250.75,177.854 Z M307.126,128.957 C307.126,136.151 301.39,141.978 294.319,141.978 C291.300421,141.980926 288.380422,140.903662 286.087,138.941 C284.502,137.279 283.302,134.63 283.302,131.941 C283.302,126.927 287.054,122.865 291.333,122.865 C291.889,123.258 292.584,122.588 293.552,125.63 C294.802,126.186 294.937,125.166 294.937,123.974 C294.937,122.034 292.862,121.201 290.368,120.236 C288.537,119.52 290.11,115.602 287.318,115.382 C285.52,115.246 284.824,116.078 285.243,117.32 C285.52,118.403 286.506,117.404 287.041,117.739 C288.847,118.848 286.319,121.993 286.319,121.993 C283.451,124.539 281.639,128.13 281.639,131.868 C281.639,134.246 282.38,136.336 283.445,138.379 C284.676,139.919 285.804,141.356 287.126,142.207 C287.126,142.207 288.42,145.308 285.109,148.073 C283.445,149.459 281.782,147.654 276.238,157.349 C275.956,157.858 275.007,155.859 272.919,155.137 C271.527,154.304 267.375,155.137 267.099,158.741 C266.84,162.06 270.149,160.405 270.979,157.632 C272.041,156.936 273.017,158.199 273.745,159.567 C274.75,161.455 272.636,165.942 266.964,169.546 C261.832,172.731 252.693,171.209 252.97,165.111 C253.177,160.604 259.346,159.567 258.508,163.169 C258.01,165.348 263.773,165.665 261.007,160.952 C258.236,156.241 251.862,160.406 250.752,163.169 C249.645,160.405 243.275,156.24 240.505,160.952 C237.732,165.665 243.502,165.348 242.999,163.169 C242.166,159.567 248.335,160.604 248.536,165.111 C248.813,171.209 239.673,172.73 234.548,169.546 C228.87,165.942 226.756,161.456 227.762,159.567 C228.496,158.2 229.463,156.936 230.533,157.632 C231.364,160.405 234.672,162.061 234.406,158.741 C234.136,155.137 229.979,154.305 228.593,155.137 C226.505,155.859 225.556,157.858 225.266,157.349 C219.729,147.653 218.066,149.459 216.403,148.073 C213.091,145.307 214.386,142.207 214.386,142.207 C215.572,140.866 216.969,140.196 218.203,138.656 C219.288504,136.557584 219.857922,134.230548 219.864,131.868 C219.864,128.129 218.053,124.539 215.192,121.993 C215.192,121.993 212.664,118.848 214.463,117.739 C215.005,117.404 215.984,118.403 216.269,117.32 C216.68,116.078 216.52,115.717 214.186,115.524 C210.867,115.246 212.976,119.519 211.144,120.235 C208.65,121.2 206.568,122.033 206.568,123.973 C206.568,125.165 206.71,126.184 207.954,125.629 C208.927,122.587 209.618,123.257 210.171,122.864 C214.457,122.864 218.203,126.926 218.203,131.94 C218.203,134.629 217.009,137.278 215.425,138.94 C213.130762,140.90127 210.211296,141.978337 207.193,141.977 C200.122,141.977 194.385,136.15 194.385,128.956 C193.547,118.018 200.198,111.365 206.259,108.014 C213.071,105.094 217.932,97.493 217.932,88.58 C217.932,79.085 212.942,71.756 204.904,68.431 C202.745,66.986 203.815,66.663 204.492,65.104 C204.724,64.569 204.698,63.775 204.769,62.887 C204.975,60.302 204.717,61.527 204.492,60.256 C204.413,59.832 203.802,59.367 203.936,58.039 C204.492,52.779 210.041,55.036 210.447,57.072 C210.866,59.149 210.125,58.941 209.616,59.426 C207.262,58.593 208.087,60.103 208.229,60.533 C208.648,61.777 210.035,62.216 211.696,61.089 C213.077,60.67 213.644,58.619 214.05,58.735 C216.705,59.497 217.93,56.518 216.821,56.376 C215.713,56.241 214.327,57.628 213.36,56.376 C210.027,52.103 204.51,52.334 203.524,54.159 C201.718,57.485 200.197,55.685 200.197,55.685 C200.197,55.685 197.711,53.894 197.98,53.747 C202.274,51.393 204.22,50.046 210.866,43.498 C213.774,40.171 220.773,30.85 222.637,29.368 C228.735,24.521 240.226,16.071 246.88,21.337 C249.529,23.438 248.536,25.764 247.568,26.602 C246.46,27.704 245.699,23.894 245.216,24.102 C243.687,24.385 246.047,26.873 244.939,27.983 C243.908,29.096 242.044,27.749 242.166,26.602 C242.443,23.966 236.353,28.956 243.687,31.031 C245.255,31.469 245.216,30.477 246.323,30.612 C247.432,30.754 248.812,32.14 250.752,31.863 C252.692,32.14 254.079,30.754 255.189,30.612 C256.296,30.477 256.257,31.468 257.818,31.031 C265.16,28.956 259.062,23.966 259.346,26.602 C259.468,27.748 257.604,29.096 256.574,27.983 C255.467,26.873 257.818,24.385 256.297,24.102 C255.807,23.894 255.053,27.704 253.945,26.602 C252.97,25.764 251.984,23.438 254.633,21.337 C261.279,16.07 272.778,24.521 278.876,29.368 C280.739,30.849 287.738,40.171 290.647,43.498 C297.285,50.046 298.543,50.975 303.533,53.747 C303.797,53.895 301.174,55.822 301.174,55.822 C301.174,55.822 299.93,56.795 297.989,54.159 C296.758,52.49 291.477,52.102 288.153,56.376 C287.185,57.628 285.799,56.241 284.691,56.376 C283.582,56.518 284.807,59.497 287.462,58.735 C287.868,58.619 288.429,60.67 289.816,61.089 C291.477,62.216 292.864,61.777 293.283,60.533 C293.426,60.103 294.251,58.593 291.891,59.426 C291.387,58.942 290.647,59.149 291.066,57.072 C291.471,55.036 297.021,52.78 297.577,58.039 C297.712,59.367 297.093,59.831 297.021,60.256 C296.796,61.527 296.539,60.301 296.739,62.887 C296.816,63.776 296.784,64.569 297.021,65.104 C297.691,66.663 298.769,66.986 296.602,68.431 C288.572,71.756 283.581,79.085 283.581,88.58 C283.581,97.494 288.435,105.094 295.255,108.014 C301.312,111.365 307.956,118.019 307.126,128.957 Z" id="Shape"></path>
            <path d="M275.845,93.724 C273.235,88.607 268.806,85.061 263.913,83.669 L264.189,82.702 C266.82,78.822 267.935,73.684 268.07,68.844 C268.07,67.923 267.986,67.04 267.825,66.208 C268.381,65.796 270.34,66.917 271.945,69.263 C273.743,71.892 275.825,69.682 274.02,68.29 C272.627,67.22 271.254,62.063 271.112,61.09 C270.977,60.115 270.977,56.519 271.255,55.966 C271.874,54.727 271.255,51.253 269.591,54.579 C267.928,57.905 265.569,57.073 265.569,57.073 C264.325,54.444 260.982,49.112 255.05,47.656 C255.875,45.573 258.917,42.789 263.339,40.997 C265.627,40.077 267.445,39.457 269.315,39.341 C270.005,38.097 270.148,37.264 269.591,37.264 C266.124,37.264 261.193,38.856 259.091,39.824 C257.344,40.636 255.011,41.242 252.427,41.469 C250.344,41.649 248.378,41.564 246.717,41.261 C243.848,40.746 240.504,40.037 237.595,39.07 C234.545,36.987 234.269,40.172 234.785,40.591 C236.615,41.12 238.608,41.938 240.54,43.014 C242.346,44.376 243.603,45.942 244.66,47.379 C241.784,48.428 239.058,50.505 237.872,52.504 C236.68,50.543 233.973,48.758 231.916,48.758 C226.855,48.21 224.297,51.613 224.297,54.785 C224.297,56.326 225.03,57.718 226.224,58.749 C226.224,58.749 228.035,59.703 229.227,58.736 C229.685,58.356 229.285,57.711 229.285,57.215 C228.178,55.823 228.571,53.606 230.949,53.606 C233.314,53.606 235.241,55.829 235.241,58.317 C230.111,61.019 225.959,65.885 225.959,71.274 C225.959,76.966 229.422,82.006 236.35,84.501 L236.35,112.199 C236.35,112.199 236.621,115.247 233.437,111.366 C232.625,110.375 231.703,109.884 230.665,108.324 C226.927,102.368 224.116,97.101 223.188,97.101 C221.944,97.101 220.836,97.238 222.22,99.455 C223.49084,101.492373 224.161496,103.846776 224.155,106.248 C224.155,108.459 224.619,111.173 219.861,114.969 C217.786,116.633 219.726,118.296 221.525,116.633 C223.331,114.969 224.994,115.247 225.542,115.247 C227.074,115.247 230.665,115.525 234.134,119.264 C235.32,119.689 236.067,120.746 236.067,122.106 C236.067,123.827 234.707,125.219 233.025,125.219 C231.342,125.219 229.977,123.827 229.977,122.106 C229.977,121.305 230.325,121.202 230.808,120.648 C230.808,120.648 230.254,118.85 228.179,120.371 C227.423,120.919 225.683,122.865 226.237,124.251 C226.374,127.712 230.911,131.49 237.454,128.131 C238.53,129.866 240.528,132.244 242.579,133.533 C244.699,134.862 246.852,135.08 246.671,135.66 C245.073,140.732 240.504,142.369 240.504,142.369 C237.333,142.891 234.546,142.814 234.135,140.178 C232.06,135.885 237.177,136.994 235.656,134.086 C234.404,133.667 232.748,133.804 232.071,134.112 C229.874,135.478 228.448,137.626 228.448,140.041 C228.448,144.166 232.606,147.52 237.73,147.52 C239.968,147.52 242.016,146.882 243.622,145.825 C245.691,144.451 248.122,143.362 249.364,141.422 C250.75,143.362 255.224,145.927 256.431,146.689 C258.646,148.074 265.569,148.906 260.586,145.58 C252.595,140.255 253.8,134.776 253.8,134.776 C259.201,134.641 268.484,127.157 269.779,117.96 C277.682,113.332 280.421,102.702 275.845,93.724 Z M236.351,78.401 C232.884,76.603 231.64,73.98 231.64,71.337 C231.64,68.598 233.599,65.858 236.351,63.86 L236.351,78.401 Z M247.566,51.67 L247.566,55.545 C244.241,55.268 241.61,56.241 241.476,56.144 C242.106,54.03 244.267,51.884 247.566,51.67 Z M247.566,60.18 L247.566,80.485 C247.566,80.485 244.524,80.756 242.997,80.2 C241.959,79.821 241.753,78.956 241.753,78.956 L241.753,61.229 C243.643147,60.6539164 245.594065,60.3018585 247.566,60.18 Z M247.553,129.827 C243.964,128.72 242.314,125.322 242.164,123.002 C243.641,123.279 245.491,123.975 247.553,123.833 L247.553,129.827 Z M247.566,117.6 C247.566,118.45 244.826,118.193 243.131,116.91 C242.068,116.105 241.752,114.835 241.752,114.835 L241.752,93.085 L247.565,93.085 L247.566,117.6 Z M247.708,88.374 L241.887,88.374 L241.887,85.332 C244.104,85.609 245.214,85.744 247.708,85.744 L247.708,88.374 Z M253.8,52.348 C256.661,53.07 258.931,55.075 259.613,57.073 C259.343,57.073 254.907,55.546 253.8,55.823 L253.8,52.348 Z M253.779,60.27 C255.442,60.27 255.186,60.811 257.538,60.953 C258.641,61.359 261.192,61.669 261.83,62.616 C262.624,63.771 262.759,66.175 262.663,68.843 C262.289,75.676 261.142,78.402 258.925,81.31 C258.564,82.335 257.422,82.096 256.294,81.864 C255.466425,81.7048089 254.634804,81.567428 253.8,81.452 L253.779,60.27 Z M253.942,129.511 L253.942,123.832 C257.756,123.613 260.981,122.925 262.385,122.176 C262.25,124.251 258.506,128.021 253.942,129.511 Z M263.225,115.802 C261.005,117.052 259.06,117.877 257.262,118.019 C253.943,117.877 253.8,118.328 253.8,117.741 L253.8,95.027 C253.8,95.027 264.324,98.075 264.743,110.678 C264.777,111.771 265.015,114.969 263.225,115.802 Z M269.733,109.174 L269.618,108.871 C269.488,106.003 268.521,102.639 266.71,99.37 C263.855,94.214 259.201,90.591 256.431,89.901 C256.79,89.553 256.764,89.508 257.209,89.263 C260.169,86.853 266.931,89.922 270.095,95.632 C273.189,99.874 272.712,106.493 269.733,109.174 Z M0,264.088 L27.686,264.088 C50.582,264.088 51.871,278.893 51.871,281.652 C51.871,285.7 50.402,291.404 45.528,295.453 C49.48,298.482 53.528,304.367 53.528,312.373 C53.528,315.86 52.516,321.384 46.54,326.535 C41.937,330.486 34.487,331.13 30.264,331.13 L0,331.13 L0,264.088 Z M13.795,290.851 L29.433,290.851 C35.318,290.851 38.721,288.555 38.721,283.219 C38.721,277.424 34.95,275.587 30.168,275.587 L13.795,275.587 L13.795,290.851 Z M13.795,319.631 L29.981,319.631 C34.125,319.631 40.378,319.451 40.378,310.253 C40.378,302.711 35.138,302.35 32.56,302.35 L13.795,302.35 L13.795,319.631 Z M91.416,331.13 C90.494,329.939 89.945,327.914 90.037,326.168 C85.532,330.397 81.573,333.244 74.032,333.244 C63.918,333.244 58.954,327.541 59.322,317.89 C59.599,310.896 62.351,304.089 73.76,302.162 C78.537,301.974 83.686,300.873 86.723,299.86 C89.024,299.035 90.126,296.644 89.945,294.253 C89.945,291.127 87.367,289.747 81.483,289.747 C74.128,289.747 73.208,294.253 73.019,297.838 L60.883,297.838 C61.068,281.929 74.676,280.46 81.483,280.46 C86.452,280.46 90.771,281.285 93.254,282.295 C98.223,284.319 102.175,288.369 102.175,296.277 L102.175,323.5 C102.085,325.702 103.374,327.914 105.025,329.385 L105.025,331.13 L91.416,331.13 Z M89.945,307.681 C86.265,309.887 81.301,309.698 77.989,310.343 C74.031,311.084 71.272,314.392 72.374,318.439 C73.115,321.384 75.411,323.501 80.928,322.579 C88.56,321.385 89.945,316.049 89.945,310.531 L89.945,307.681 Z M111.829,281.286 L124.702,281.286 L124.702,288.826 L124.889,288.826 C127.372,283.586 132.154,280.461 137.118,280.461 C148.525,280.461 156.249,285.243 156.249,297.747 L156.249,331.13 L143.371,331.13 L143.371,301.52 C143.371,297.104 142.815,291.864 134.081,291.864 C126.268,291.864 124.702,296.189 124.702,300.231 L124.702,331.13 L111.829,331.13 L111.829,281.286 Z M195.781,299.861 C193.846,291.953 190.262,291.863 186.312,291.675 C181.896,291.404 178.77,294.253 177.389,299.035 C176.925,300.506 175.456,307.59 177.022,313.565 C179.046,321.382 182.45,322.485 186.492,322.577 C189.716,322.764 193.757,322.208 195.781,313.745 L208.106,313.745 C208.196,320.552 202.04,327.18 200.195,328.737 C196.425,331.864 193.667,332.966 185.577,333.243 C170.029,333.799 164.511,321.105 163.596,313.843 C163.042,309.427 162.584,300.873 165.344,294.531 C171.228,281.194 177.945,281.007 186.215,280.461 C191.185,280.184 196.523,281.382 199.37,283.219 C204.977,286.712 208.106,295.815 208.106,299.862 L195.781,299.862 L195.781,299.861 Z M219.785,327.181 C214.815,322.667 212.424,314.946 212.424,306.85 C212.424,298.76 214.815,291.031 219.785,286.526 C224.195,282.484 230.543,280.462 236.983,280.462 C243.416,280.462 249.764,282.484 254.174,286.526 C259.143,291.031 261.533,298.76 261.533,306.85 C261.533,314.946 259.142,322.667 254.174,327.181 C249.763,331.222 243.415,333.244 236.983,333.244 C230.543,333.244 224.195,331.222 219.785,327.181 Z M227.783,297.104 C226.773,299.037 225.392,302.711 225.392,306.85 C225.392,310.995 226.773,314.669 227.783,316.596 C230.175,320.741 233.759,322.209 236.983,322.209 C240.199,322.209 243.788,320.74 246.173,316.596 C247.185,314.669 248.566,310.994 248.566,306.85 C248.566,302.711 247.185,299.037 246.173,297.104 C243.787,292.965 240.198,291.495 236.983,291.495 C233.759,291.494 230.175,292.965 227.783,297.104 Z M329.938,284.508 C330.12,279.08 325.614,274.111 316.137,273.931 C309.427,273.84 304.464,276.135 303.999,281.653 C303.633,286.257 305.198,287.171 308.228,288.371 C309.794,290.026 322.488,292.044 325.058,292.507 C328.739,293.153 336.649,294.809 340.877,299.129 C348.605,307.218 345.015,323.132 336.648,328.56 C330.944,332.236 323.13,333.156 315.68,333.246 C312.276,333.338 304.18,332.144 299.216,328.56 C293.24,324.235 290.295,317.615 289.837,311.265 L303.266,311.265 C303.266,313.012 303.82,315.772 306.114,318.163 C309.15,321.29 314.112,322.302 318.715,322.12 C323.313,322.022 327.636,320.643 329.384,318.993 C332.323,316.235 332.969,310.995 329.655,307.681 C325.245,303.085 312,303.085 303.356,300.139 C296.09,297.658 290.109,292.417 291.218,281.561 C292.32,270.895 300.047,262.986 316.413,262.986 C320.003,262.986 332.509,263.263 339.039,271.541 C342.532,276.046 343.447,282.297 342.898,284.509 L329.938,284.509 L329.938,284.508 Z M380.796,331.13 C379.873,329.939 379.327,327.914 379.417,326.168 C374.911,330.397 370.96,333.244 363.418,333.244 C353.297,333.244 348.327,327.541 348.702,317.89 C348.973,310.896 351.738,304.089 363.14,302.162 C367.922,301.974 373.068,300.873 376.102,299.86 C378.404,299.035 379.506,296.644 379.327,294.253 C379.327,291.127 376.749,289.747 370.862,289.747 C363.507,289.747 362.587,294.253 362.405,297.838 L350.262,297.838 C350.449,281.929 364.063,280.46 370.862,280.46 C375.826,280.46 380.151,281.285 382.633,282.295 C387.597,284.319 391.554,288.369 391.554,296.277 L391.554,323.5 C391.464,325.702 392.753,327.914 394.404,329.385 L394.404,331.13 L380.796,331.13 Z M379.327,307.681 C375.644,309.887 370.675,309.698 367.369,310.343 C363.418,311.084 360.652,314.392 361.762,318.439 C362.495,321.384 364.796,323.501 370.314,322.579 C377.947,321.385 379.328,316.049 379.328,310.531 L379.328,307.681 L379.327,307.681 Z M396.613,281.305 L403.601,281.305 L403.601,276.502 C403.601,269.057 407.372,264.088 415.738,264.088 L423.737,264.088 L423.737,273.652 L419.232,273.652 C417.484,273.652 416.473,274.756 416.473,277.055 L416.473,281.304 L424.106,281.304 L424.106,289.859 L416.473,289.859 L416.473,331.13 L403.601,331.13 L403.601,289.859 L396.613,289.859 L396.613,281.305 Z M429.7,281.286 L442.573,281.286 L442.573,290.94 L442.76,290.94 C443.585,288.001 444.229,286.255 448.735,283.128 C450.947,281.47 453.885,279.815 457.935,280.46 L457.935,293.607 C452.414,292.963 444.139,292.228 442.574,303.084 L442.574,331.129 L429.7,331.129 L429.7,281.286 Z M492.231,331.13 C491.309,329.939 490.76,327.914 490.852,326.168 C486.347,330.397 482.387,333.244 474.848,333.244 C464.733,333.244 459.769,327.541 460.137,317.89 C460.414,310.896 463.166,304.089 474.576,302.162 C479.352,301.974 484.507,300.873 487.544,299.86 C489.84,299.035 490.941,296.644 490.76,294.253 C490.76,291.127 488.182,289.747 482.297,289.747 C474.943,289.747 474.022,294.253 473.841,297.838 L461.695,297.838 C461.883,281.929 475.49,280.46 482.297,280.46 C487.261,280.46 491.585,281.285 494.068,282.295 C499.037,284.319 502.989,288.369 502.989,296.277 L502.989,323.5 C502.899,325.702 504.188,327.914 505.837,329.385 L505.837,331.13 L492.231,331.13 Z M490.761,307.681 C487.081,309.887 482.117,309.698 478.806,310.343 C474.849,311.084 472.094,314.392 473.199,318.439 C473.931,321.384 476.227,323.501 481.745,322.579 C489.377,321.385 490.762,316.049 490.762,310.531 L490.762,307.681 L490.761,307.681 Z" id="Shape"></path>
        </g>
    </g>
</svg>