<?xml version="1.0" encoding="UTF-8"?>
<svg width="165px" height="75px" viewBox="0 0 165 75" version="1.1" xmlns="http://www.w3.org/2000/svg" xmlns:xlink="http://www.w3.org/1999/xlink">
    <!-- Generator: Sketch 48.2 (47327) - http://www.bohemiancoding.com/sketch -->
    <title>usp-1</title>
    <desc>Created with Sketch.</desc>
    <defs></defs>
    <g id="Page-1" stroke="none" stroke-width="1" fill="none" fill-rule="evenodd">
        <g id="usp-1" transform="translate(2.000000, 2.000000)" stroke="#FFFFFF" stroke-width="3.75">
            <path d="M54.283,0.097 L0.257,0.097 L0.257,62.605 C0.257,67.601 2.749,69.761 7.513,70.705 L44.535,70.705 C49.3,69.807 52.14,67.601 52.753,62.291 C53.977,66.971 56.512,69.041 61.539,70.705 L97.38,70.705 C102.538,69.807 106.167,66.656 106.472,61.975 L106.472,43.209 L79.154,15.083 M76.75,53.244 L53.671,29.483 L53.671,8.242 C54.283,3.427 56.905,0.727 61.539,0.097 L97.992,0.097 C102.539,0.727 104.943,3.922 105.861,8.242 C106.953,3.112 109.576,0.007 113.773,0.097 L152.63,0.097 C159.886,-0.533 160.497,5.092 160.497,8.827 L160.497,42.579 L133.18,42.579 L133.18,65.079 C133.004,67.78 131.387,69.489 128.328,70.12 L108.92,70.12 M26.353,0.097 L26.353,51.984 M133.18,18.233 L133.18,41.994 M52.753,55.404 L52.753,64.179 M105.643,7.387 L105.643,16.162" id="Shape"></path>
        </g>
    </g>
</svg>